<?xml version="1.0" standalone="no"?>
<!DOCTYPE svg PUBLIC "-//W3C//DTD SVG 20010904//EN"
 "http://www.w3.org/TR/2001/REC-SVG-20010904/DTD/svg10.dtd">
<svg version="1.0" xmlns="http://www.w3.org/2000/svg"
 width="1024.000000pt" height="1024.000000pt" viewBox="0 0 1024.000000 1024.000000"
 preserveAspectRatio="xMidYMid meet">

<g transform="translate(0.000000,1024.000000) scale(0.100000,-0.100000)"
fill="#000000" stroke="none">
<path d="M0 5120 l0 -5120 5120 0 5120 0 0 5120 0 5120 -5120 0 -5120 0 0
-5120z m5981 3344 c197 -58 357 -216 423 -419 34 -106 38 -257 11 -367 -5 -20
0 -27 30 -41 61 -29 137 -90 213 -172 55 -59 85 -102 122 -179 76 -155 103
-257 103 -396 1 -101 -2 -125 -27 -195 -57 -165 -147 -272 -280 -336 -113 -54
-197 -67 -328 -50 -245 30 -457 139 -659 341 -176 175 -248 317 -249 486 0
145 50 259 166 378 156 160 356 235 591 223 96 -4 103 -4 109 15 9 31 6 123
-7 171 -28 105 -125 244 -198 281 -16 9 -65 21 -108 27 -92 13 -127 29 -148
69 -36 70 -5 147 70 172 37 11 111 8 166 -8z m-2181 -34 c374 -59 782 -390
1103 -898 133 -210 307 -594 307 -677 0 -52 -44 -95 -98 -95 -61 0 -83 25
-132 147 -101 256 -280 566 -444 768 -98 119 -292 308 -386 374 -95 67 -205
123 -300 152 -107 33 -264 34 -335 1 -128 -59 -179 -178 -155 -361 65 -488
552 -868 1380 -1076 153 -39 180 -57 180 -123 0 -46 -22 -80 -64 -97 -26 -11
-44 -11 -105 0 -306 59 -715 215 -960 368 -171 106 -361 284 -460 431 -67 98
-133 237 -161 336 -46 164 -35 373 27 500 93 191 335 291 603 250z m-145
-1700 c49 -46 41 -136 -14 -164 -14 -8 -57 -23 -96 -35 -123 -37 -175 -86
-175 -166 0 -90 78 -162 230 -212 201 -66 532 -18 801 117 104 53 142 55 182
10 26 -29 29 -38 24 -79 -4 -36 -12 -52 -37 -73 -76 -63 -285 -144 -490 -190
-145 -32 -385 -32 -505 0 -186 50 -331 153 -390 277 -25 51 -29 73 -29 140 0
66 4 90 27 139 36 78 83 134 151 181 119 82 266 107 321 55z m1642 -306 c287
-228 550 -368 820 -434 l91 -23 12 -81 c16 -107 8 -320 -15 -408 -9 -38 -21
-68 -26 -68 -30 0 -254 66 -352 104 -356 137 -705 364 -956 620 l-64 65 48 57
c27 31 82 84 122 118 69 58 187 136 205 136 4 0 56 -39 115 -86z m-662 -595
c67 -69 235 -210 345 -291 273 -198 572 -343 903 -436 70 -20 127 -40 127 -44
0 -4 -39 -48 -86 -98 -99 -103 -222 -191 -336 -238 l-76 -32 -100 30 c-331 98
-672 304 -901 544 l-64 67 7 94 c3 51 17 136 30 187 23 90 91 258 105 258 4 0
25 -18 46 -41z m58 -1090 c74 -48 178 -99 299 -147 20 -8 -522 -202 -563 -202
-28 0 -59 43 -59 82 0 13 18 122 40 243 22 121 40 221 40 223 0 3 34 -28 76
-68 42 -40 117 -99 167 -131z m-2050 -988 c144 -37 225 -99 282 -215 98 -196
34 -402 -157 -511 l-39 -22 61 -22 c88 -32 158 -93 198 -172 109 -214 27 -460
-188 -569 -120 -61 -138 -63 -577 -67 l-403 -5 0 801 0 801 373 0 c337 0 381
-2 450 -19z m4567 -781 l0 -800 -155 0 -155 0 0 800 0 800 155 0 155 0 0 -800z
m-3678 -12 l3 -393 25 -45 c82 -146 349 -124 421 35 17 36 19 74 19 418 l0
377 150 0 150 0 0 -590 0 -591 -146 3 -147 3 2 93 c1 50 -2 92 -6 92 -5 0 -17
-16 -28 -36 -49 -92 -180 -165 -308 -172 -214 -12 -357 83 -418 279 -17 56
-19 98 -19 490 l0 429 150 0 149 0 3 -392z m1968 292 l0 -101 -266 -337 c-147
-185 -277 -348 -290 -363 -13 -14 -24 -28 -24 -32 0 -4 134 -7 298 -7 l297 0
-2 -117 -2 -118 -490 -3 -491 -2 0 95 0 96 184 232 c101 128 237 296 301 375
l116 142 -291 0 -290 0 0 120 0 120 475 0 475 0 0 -100z m1180 0 l0 -99 -285
-363 c-156 -200 -285 -366 -285 -370 0 -5 133 -8 295 -8 l295 0 0 -120 0 -120
-490 0 -490 0 0 98 0 98 290 367 c160 202 290 369 290 372 0 3 -126 5 -280 5
l-280 0 0 120 0 120 470 0 470 0 0 -100z m1005 38 c26 -95 234 -791 241 -808
3 -8 65 183 138 425 l132 440 162 3 161 2 -69 -203 c-143 -421 -389 -1094
-427 -1172 -77 -154 -215 -235 -397 -235 -109 0 -196 17 -196 39 1 9 11 61 24
116 l22 100 75 -3 c122 -6 188 33 204 119 7 36 12 19 -247 749 -50 140 -105
300 -123 355 -18 55 -36 108 -40 118 -7 16 5 17 158 17 l164 0 18 -62z"/>
<path d="M6284 7309 c-40 -12 -90 -63 -105 -107 -18 -54 -6 -153 24 -205 33
-57 95 -111 142 -127 109 -36 215 41 215 156 0 164 -152 320 -276 283z"/>
<path d="M2130 3310 l0 -212 183 4 c197 4 216 8 268 65 49 52 61 89 57 169 -4
87 -22 117 -94 154 -46 24 -59 25 -231 28 l-183 4 0 -212z"/>
<path d="M2130 2646 l0 -216 194 0 c205 0 245 7 304 50 73 54 99 179 55 265
-24 46 -43 65 -93 91 -30 16 -64 19 -247 22 l-213 4 0 -216z"/>
</g>
</svg>
